<svg xmlns="http://www.w3.org/2000/svg" viewBox="0 0 200 200">
  <defs>
    <linearGradient id="bg" x1="0%" y1="0%" x2="100%" y2="100%">
      <stop offset="0%" stop-color="#9678ff"/>
      <stop offset="55%" stop-color="#6a48f0"/>
      <stop offset="100%" stop-color="#4c2fc4"/>
    </linearGradient>
    <radialGradient id="petalGold" cx="35%" cy="30%" r="80%">
      <stop offset="0%" stop-color="#fbe2a5"/>
      <stop offset="55%" stop-color="#e8b654"/>
      <stop offset="100%" stop-color="#c8963a"/>
    </radialGradient>
    <radialGradient id="center" cx="40%" cy="35%" r="70%">
      <stop offset="0%" stop-color="#ffffff"/>
      <stop offset="100%" stop-color="#fff2d6"/>
    </radialGradient>
  </defs>

  <rect x="4" y="4" width="192" height="192" rx="46" fill="url(#bg)"/>
  <rect x="4" y="4" width="192" height="192" rx="46" fill="none" stroke="rgba(255,255,255,0.14)" stroke-width="1.5"/>

  <g transform="translate(100 100)">
    <path d="M0,-4 C-16,-10 -22,-30 -10,-46 C0,-56 0,-56 10,-46 C22,-30 16,-10 0,-4 Z" fill="url(#petalGold)" transform="rotate(0)"/>
    <path d="M0,-4 C-16,-10 -22,-30 -10,-46 C0,-56 0,-56 10,-46 C22,-30 16,-10 0,-4 Z" fill="url(#petalGold)" transform="rotate(72)"/>
    <path d="M0,-4 C-16,-10 -22,-30 -10,-46 C0,-56 0,-56 10,-46 C22,-30 16,-10 0,-4 Z" fill="url(#petalGold)" transform="rotate(144)"/>
    <path d="M0,-4 C-16,-10 -22,-30 -10,-46 C0,-56 0,-56 10,-46 C22,-30 16,-10 0,-4 Z" fill="url(#petalGold)" transform="rotate(216)"/>
    <path d="M0,-4 C-16,-10 -22,-30 -10,-46 C0,-56 0,-56 10,-46 C22,-30 16,-10 0,-4 Z" fill="url(#petalGold)" transform="rotate(288)"/>
    <circle cx="0" cy="0" r="15" fill="url(#center)"/>
    <circle cx="0" cy="0" r="15" fill="none" stroke="#e8b654" stroke-width="1.5" opacity="0.6"/>
  </g>
</svg>
